<svg width="512" height="512" viewBox="0 0 512 512" fill="none" xmlns="http://www.w3.org/2000/svg" role="img" aria-label="NónAI maskable icon">
  <defs>
    <linearGradient id="mbg" x1="0" y1="0" x2="512" y2="512" gradientUnits="userSpaceOnUse">
      <stop stop-color="#E9F1E6"/>
      <stop offset="1" stop-color="#C7DAC3"/>
    </linearGradient>
    <linearGradient id="mstraw" x1="256" y1="190" x2="256" y2="368" gradientUnits="userSpaceOnUse">
      <stop stop-color="#F2D9A0"/>
      <stop offset="0.55" stop-color="#E4BE73"/>
      <stop offset="1" stop-color="#C9954B"/>
    </linearGradient>
    <linearGradient id="mstrawEdge" x1="256" y1="316" x2="256" y2="378" gradientUnits="userSpaceOnUse">
      <stop stop-color="#D9A85B"/>
      <stop offset="1" stop-color="#B37E38"/>
    </linearGradient>
  </defs>
  <rect width="512" height="512" fill="url(#mbg)"/>
  <!-- hat scaled to ~64% inside safe zone, centred -->
  <g transform="translate(256 268) scale(0.62) translate(-256 -256)">
    <path d="M188 250 C 176 320, 182 372, 210 408" stroke="#5E8A5E" stroke-width="9" stroke-linecap="round" opacity="0.85"/>
    <path d="M324 250 C 336 320, 330 372, 302 408" stroke="#5E8A5E" stroke-width="9" stroke-linecap="round" opacity="0.85"/>
    <path d="M96 322 Q 256 372 416 322 Q 372 352 256 356 Q 140 352 96 322 Z" fill="url(#mstrawEdge)"/>
    <path d="M256 118 C 240 118 228 128 214 146 L 108 300 Q 96 318 108 328 Q 256 372 404 328 Q 416 318 404 300 L 298 146 C 284 128 272 118 256 118 Z" fill="url(#mstraw)" stroke="#B4823D" stroke-width="5"/>
    <path d="M150 250 Q 256 292 362 250" stroke="#C58F45" stroke-width="6" fill="none" stroke-linecap="round" opacity="0.7"/>
    <path d="M176 205 Q 256 240 336 205" stroke="#C58F45" stroke-width="6" fill="none" stroke-linecap="round" opacity="0.7"/>
    <path d="M202 162 Q 256 188 310 162" stroke="#C58F45" stroke-width="6" fill="none" stroke-linecap="round" opacity="0.6"/>
    <circle cx="256" cy="126" r="12" fill="#EBD08C" stroke="#B4823D" stroke-width="4"/>
    <path d="M256 298 l7.5 19 19 7.5 -19 7.5 -7.5 19 -7.5 -19 -19 -7.5 19 -7.5 z" fill="#FFFFFF"/>
    <path d="M256 298 l7.5 19 19 7.5 -19 7.5 -7.5 19 -7.5 -19 -19 -7.5 19 -7.5 z" fill="#3EC6A8" opacity="0.4"/>
  </g>
</svg>
